<svg width="206" height="21" viewBox="0 0 206 21" fill="none" xmlns="http://www.w3.org/2000/svg">
<rect width="206" height="21"/>
<path d="M-1.37091e-06 10.5V9.13636L10.9773 3.54545V5.72727L2.55682 9.78409L2.625 9.64773V9.98864L2.55682 9.85227L10.9773 13.9091V16.0909L-1.37091e-06 10.5ZM29.5589 6.27273H27.4453C27.3203 5.66477 27.1016 5.13068 26.7891 4.67045C26.4822 4.21023 26.1072 3.82386 25.6641 3.51136C25.2266 3.19318 24.7408 2.95455 24.2067 2.79545C23.6726 2.63636 23.1158 2.55682 22.5362 2.55682C21.4794 2.55682 20.522 2.82386 19.6641 3.35795C18.8118 3.89205 18.1328 4.67898 17.6271 5.71875C17.1271 6.75852 16.8771 8.03409 16.8771 9.54545C16.8771 11.0568 17.1271 12.3324 17.6271 13.3722C18.1328 14.4119 18.8118 15.1989 19.6641 15.733C20.522 16.267 21.4794 16.5341 22.5362 16.5341C23.1158 16.5341 23.6726 16.4545 24.2067 16.2955C24.7408 16.1364 25.2266 15.9006 25.6641 15.5881C26.1072 15.2699 26.4822 14.8807 26.7891 14.4205C27.1016 13.9545 27.3203 13.4205 27.4453 12.8182H29.5589C29.3999 13.7102 29.1101 14.5085 28.6896 15.2131C28.2692 15.9176 27.7464 16.517 27.1214 17.0114C26.4964 17.5 25.7947 17.8722 25.0163 18.1278C24.2436 18.3835 23.4169 18.5114 22.5362 18.5114C21.0476 18.5114 19.7237 18.1477 18.5646 17.4205C17.4055 16.6932 16.4936 15.6591 15.8288 14.3182C15.1641 12.9773 14.8317 11.3864 14.8317 9.54545C14.8317 7.70455 15.1641 6.11364 15.8288 4.77273C16.4936 3.43182 17.4055 2.39773 18.5646 1.67045C19.7237 0.943182 21.0476 0.579545 22.5362 0.579545C23.4169 0.579545 24.2436 0.707386 25.0163 0.963068C25.7947 1.21875 26.4964 1.59375 27.1214 2.08807C27.7464 2.5767 28.2692 3.1733 28.6896 3.87784C29.1101 4.5767 29.3999 5.375 29.5589 6.27273ZM47.7017 9.54545C47.7017 11.3864 47.3693 12.9773 46.7045 14.3182C46.0398 15.6591 45.1278 16.6932 43.9687 17.4205C42.8097 18.1477 41.4858 18.5114 39.9972 18.5114C38.5085 18.5114 37.1847 18.1477 36.0256 17.4205C34.8665 16.6932 33.9545 15.6591 33.2898 14.3182C32.625 12.9773 32.2926 11.3864 32.2926 9.54545C32.2926 7.70455 32.625 6.11364 33.2898 4.77273C33.9545 3.43182 34.8665 2.39773 36.0256 1.67045C37.1847 0.943182 38.5085 0.579545 39.9972 0.579545C41.4858 0.579545 42.8097 0.943182 43.9687 1.67045C45.1278 2.39773 46.0398 3.43182 46.7045 4.77273C47.3693 6.11364 47.7017 7.70455 47.7017 9.54545ZM45.6562 9.54545C45.6562 8.03409 45.4034 6.75852 44.8977 5.71875C44.3977 4.67898 43.7187 3.89205 42.8608 3.35795C42.0085 2.82386 41.054 2.55682 39.9972 2.55682C38.9403 2.55682 37.983 2.82386 37.125 3.35795C36.2727 3.89205 35.5937 4.67898 35.0881 5.71875C34.5881 6.75852 34.3381 8.03409 34.3381 9.54545C34.3381 11.0568 34.5881 12.3324 35.0881 13.3722C35.5937 14.4119 36.2727 15.1989 37.125 15.733C37.983 16.267 38.9403 16.5341 39.9972 16.5341C41.054 16.5341 42.0085 16.267 42.8608 15.733C43.7187 15.1989 44.3977 14.4119 44.8977 13.3722C45.4034 12.3324 45.6562 11.0568 45.6562 9.54545ZM56.642 18.2727H51.2557V0.818182H56.8807C58.5739 0.818182 60.0227 1.16761 61.2273 1.86648C62.4318 2.55966 63.3551 3.55682 63.9972 4.85795C64.6392 6.15341 64.9602 7.70455 64.9602 9.51136C64.9602 11.3295 64.6364 12.8949 63.9886 14.2074C63.3409 15.5142 62.3977 16.5199 61.1591 17.2244C59.9205 17.9233 58.4148 18.2727 56.642 18.2727ZM53.3693 16.3977H56.5057C57.9489 16.3977 59.1449 16.1193 60.0937 15.5625C61.0426 15.0057 61.75 14.2131 62.2159 13.1847C62.6818 12.1563 62.9148 10.9318 62.9148 9.51136C62.9148 8.10227 62.6847 6.8892 62.2244 5.87216C61.7642 4.84943 61.0767 4.06534 60.1619 3.51989C59.2472 2.96875 58.108 2.69318 56.7443 2.69318H53.3693V16.3977ZM68.5057 18.2727V0.818182H79.0398V2.69318H70.6193V8.59091H78.4943V10.4659H70.6193V16.3977H79.1761V18.2727H68.5057ZM89.5994 18.2727V0.818182H100.065V2.69318H91.7131V8.59091H99.2812V10.4659H91.7131V18.2727H89.5994ZM103.685 18.2727V0.818182H105.799V16.3977H113.913V18.2727H103.685ZM114.865 0.818182H117.286L122.126 8.96591H122.331L127.172 0.818182H129.592L123.286 11.0795V18.2727H121.172V11.0795L114.865 0.818182ZM148.621 5.18182C148.519 4.31818 148.104 3.64773 147.377 3.17045C146.65 2.69318 145.758 2.45455 144.701 2.45455C143.928 2.45455 143.252 2.57955 142.673 2.82955C142.099 3.07955 141.65 3.4233 141.326 3.8608C141.008 4.2983 140.849 4.79545 140.849 5.35227C140.849 5.81818 140.96 6.21875 141.181 6.55398C141.408 6.88352 141.698 7.15909 142.05 7.38068C142.403 7.59659 142.772 7.77557 143.158 7.91761C143.545 8.05398 143.9 8.16477 144.224 8.25L145.996 8.72727C146.451 8.84659 146.957 9.01136 147.513 9.22159C148.076 9.43182 148.613 9.71875 149.124 10.0824C149.641 10.4403 150.067 10.9006 150.403 11.4631C150.738 12.0256 150.906 12.7159 150.906 13.5341C150.906 14.4773 150.658 15.3295 150.164 16.0909C149.675 16.8523 148.96 17.4574 148.016 17.9063C147.079 18.3551 145.94 18.5795 144.599 18.5795C143.349 18.5795 142.266 18.3778 141.352 17.9744C140.442 17.571 139.727 17.0085 139.204 16.2869C138.687 15.5653 138.394 14.7273 138.326 13.7727H140.508C140.565 14.4318 140.786 14.9773 141.173 15.4091C141.565 15.8352 142.059 16.1534 142.656 16.3636C143.258 16.5682 143.906 16.6705 144.599 16.6705C145.406 16.6705 146.13 16.5398 146.772 16.2784C147.414 16.0114 147.923 15.642 148.298 15.1705C148.673 14.6932 148.86 14.1364 148.86 13.5C148.86 12.9205 148.698 12.4489 148.374 12.0852C148.05 11.7216 147.624 11.4261 147.096 11.1989C146.567 10.9716 145.996 10.7727 145.383 10.6023L143.235 9.98864C141.871 9.59659 140.792 9.03693 139.996 8.30966C139.201 7.58239 138.803 6.63068 138.803 5.45455C138.803 4.47727 139.067 3.625 139.596 2.89773C140.13 2.16477 140.846 1.59659 141.744 1.19318C142.647 0.784091 143.656 0.579545 144.769 0.579545C145.894 0.579545 146.894 0.78125 147.769 1.18466C148.644 1.58239 149.337 2.12784 149.849 2.82102C150.366 3.5142 150.638 4.30114 150.667 5.18182H148.621ZM154.381 18.2727V0.818182H156.494V9.47727H156.699L164.54 0.818182H167.301L159.972 8.69318L167.301 18.2727H164.744L158.676 10.1591L156.494 12.6136V18.2727H154.381ZM168.537 0.818182H170.957L175.798 8.96591H176.003L180.844 0.818182H183.264L176.957 11.0795V18.2727H174.844V11.0795L168.537 0.818182ZM191.896 -4.76837e-07L186.271 20.8977H184.43L190.055 -4.76837e-07H191.896ZM205.837 12.1364L194.859 17.7273V15.5455L203.28 11.4886L203.212 11.625V11.2841L203.28 11.4205L194.859 7.36364V5.18182L205.837 10.7727V12.1364Z" fill="url(#paint0_linear_0_1)"/>
<defs>
<linearGradient id="paint0_linear_0_1" x1="-7.08061" y1="6.77273" x2="212.919" y2="6.77273" gradientUnits="userSpaceOnUse">
<stop stop-color="#874D3A"/>
<stop offset="0.509615" stop-color="#C97D5B"/>
<stop offset="1" stop-color="#5DB1FF"/>
</linearGradient>
</defs>
</svg>
