<svg width="336" height="49" viewBox="0 0 336 49" fill="none" xmlns="http://www.w3.org/2000/svg">
<rect width="336" height="49"/>
<path d="M78.8615 19H75.3388C75.1304 17.9867 74.7659 17.0966 74.245 16.3295C73.7337 15.5625 73.1087 14.9186 72.37 14.3977C71.6409 13.8674 70.8312 13.4697 69.9411 13.2045C69.0509 12.9394 68.1229 12.8068 67.157 12.8068C65.3956 12.8068 63.8 13.2519 62.37 14.142C60.9496 15.0322 59.8179 16.3438 58.9751 18.0767C58.1418 19.8097 57.7251 21.9356 57.7251 24.4545C57.7251 26.9735 58.1418 29.0994 58.9751 30.8324C59.8179 32.5653 60.9496 33.8769 62.37 34.767C63.8 35.6572 65.3956 36.1023 67.157 36.1023C68.1229 36.1023 69.0509 35.9697 69.9411 35.7045C70.8312 35.4394 71.6409 35.0464 72.37 34.5256C73.1087 33.9953 73.7337 33.3466 74.245 32.5795C74.7659 31.803 75.1304 30.9129 75.3388 29.9091H78.8615C78.5964 31.3958 78.1134 32.7263 77.4126 33.9006C76.7119 35.0748 75.8407 36.0739 74.799 36.8977C73.7573 37.7121 72.5878 38.3324 71.2905 38.7585C70.0026 39.1847 68.6248 39.3977 67.157 39.3977C64.6759 39.3977 62.4695 38.7917 60.5376 37.5795C58.6058 36.3674 57.0859 34.6439 55.978 32.4091C54.87 30.1742 54.3161 27.5227 54.3161 24.4545C54.3161 21.3864 54.87 18.7348 55.978 16.5C57.0859 14.2652 58.6058 12.5417 60.5376 11.3295C62.4695 10.1174 64.6759 9.51136 67.157 9.51136C68.6248 9.51136 70.0026 9.72443 71.2905 10.1506C72.5878 10.5767 73.7573 11.2017 74.799 12.0256C75.8407 12.84 76.7119 13.8343 77.4126 15.0085C78.1134 16.1733 78.5964 17.5038 78.8615 19ZM109.099 24.4545C109.099 27.5227 108.545 30.1742 107.438 32.4091C106.33 34.6439 104.81 36.3674 102.878 37.5795C100.946 38.7917 98.7396 39.3977 96.2585 39.3977C93.7775 39.3977 91.571 38.7917 89.6392 37.5795C87.7074 36.3674 86.1875 34.6439 85.0795 32.4091C83.9716 30.1742 83.4176 27.5227 83.4176 24.4545C83.4176 21.3864 83.9716 18.7348 85.0795 16.5C86.1875 14.2652 87.7074 12.5417 89.6392 11.3295C91.571 10.1174 93.7775 9.51136 96.2585 9.51136C98.7396 9.51136 100.946 10.1174 102.878 11.3295C104.81 12.5417 106.33 14.2652 107.438 16.5C108.545 18.7348 109.099 21.3864 109.099 24.4545ZM105.69 24.4545C105.69 21.9356 105.269 19.8097 104.426 18.0767C103.593 16.3438 102.461 15.0322 101.031 14.142C99.6108 13.2519 98.0199 12.8068 96.2585 12.8068C94.4972 12.8068 92.9015 13.2519 91.4716 14.142C90.0511 15.0322 88.9195 16.3438 88.0767 18.0767C87.2434 19.8097 86.8267 21.9356 86.8267 24.4545C86.8267 26.9735 87.2434 29.0994 88.0767 30.8324C88.9195 32.5653 90.0511 33.8769 91.4716 34.767C92.9015 35.6572 94.4972 36.1023 96.2585 36.1023C98.0199 36.1023 99.6108 35.6572 101.031 34.767C102.461 33.8769 103.593 32.5653 104.426 30.8324C105.269 29.0994 105.69 26.9735 105.69 24.4545ZM124 39H115.023V9.90909H124.398C127.22 9.90909 129.634 10.4915 131.642 11.6562C133.65 12.8116 135.188 14.4735 136.259 16.642C137.329 18.8011 137.864 21.3864 137.864 24.3977C137.864 27.428 137.324 30.0369 136.244 32.2244C135.165 34.4025 133.593 36.0786 131.528 37.2528C129.464 38.4176 126.955 39 124 39ZM118.545 35.875H123.773C126.178 35.875 128.171 35.411 129.753 34.483C131.334 33.5549 132.513 32.2339 133.29 30.5199C134.066 28.8059 134.455 26.7652 134.455 24.3977C134.455 22.0492 134.071 20.0275 133.304 18.3324C132.537 16.6278 131.391 15.321 129.866 14.4119C128.342 13.4934 126.443 13.0341 124.17 13.0341H118.545V35.875ZM143.773 39V9.90909H161.33V13.0341H147.295V22.8636H160.42V25.9886H147.295V35.875H161.557V39H143.773ZM178.929 39V9.90909H196.372V13.0341H182.452V22.8636H195.065V25.9886H182.452V39H178.929ZM202.406 39V9.90909H205.928V35.875H219.451V39H202.406ZM221.038 9.90909H225.072L233.141 23.4886H233.482L241.55 9.90909H245.584L235.072 27.0114V39H231.55V27.0114L221.038 9.90909ZM277.299 17.1818C277.129 15.7424 276.437 14.625 275.225 13.8295C274.013 13.0341 272.526 12.6364 270.765 12.6364C269.477 12.6364 268.35 12.8447 267.384 13.2614C266.428 13.678 265.68 14.2509 265.14 14.9801C264.61 15.7093 264.344 16.5379 264.344 17.4659C264.344 18.2424 264.529 18.91 264.898 19.4688C265.277 20.018 265.76 20.4773 266.347 20.8466C266.934 21.2064 267.55 21.5047 268.194 21.7415C268.838 21.9687 269.43 22.1534 269.969 22.2955L272.924 23.0909C273.682 23.2898 274.524 23.5644 275.452 23.9148C276.39 24.2652 277.285 24.7434 278.137 25.3494C278.999 25.946 279.709 26.7131 280.268 27.6506C280.826 28.5881 281.106 29.7386 281.106 31.1023C281.106 32.6742 280.694 34.0947 279.87 35.3636C279.056 36.6326 277.862 37.6411 276.29 38.3892C274.728 39.1373 272.829 39.5114 270.594 39.5114C268.511 39.5114 266.707 39.1752 265.183 38.5028C263.667 37.8305 262.474 36.893 261.603 35.6903C260.741 34.4877 260.254 33.0909 260.14 31.5H263.776C263.871 32.5985 264.24 33.5076 264.884 34.2273C265.538 34.9375 266.362 35.4678 267.356 35.8182C268.36 36.1591 269.439 36.3295 270.594 36.3295C271.939 36.3295 273.147 36.1117 274.217 35.6761C275.287 35.2311 276.134 34.6155 276.759 33.8295C277.384 33.0341 277.697 32.1061 277.697 31.0455C277.697 30.0795 277.427 29.2936 276.887 28.6875C276.347 28.0814 275.637 27.589 274.756 27.2102C273.876 26.8314 272.924 26.5 271.901 26.2159L268.322 25.1932C266.049 24.5398 264.25 23.607 262.924 22.3949C261.598 21.1828 260.935 19.5966 260.935 17.6364C260.935 16.0076 261.376 14.5871 262.256 13.375C263.147 12.1534 264.34 11.2064 265.836 10.5341C267.342 9.85227 269.022 9.51136 270.879 9.51136C272.754 9.51136 274.42 9.84754 275.879 10.5199C277.337 11.1828 278.492 12.0919 279.344 13.2472C280.206 14.4025 280.661 15.714 280.708 17.1818H277.299ZM286.898 39V9.90909H290.42V24.3409H290.761L303.83 9.90909H308.432L296.216 23.0341L308.432 39H304.17L294.057 25.4773L290.42 29.5682V39H286.898ZM310.491 9.90909H314.526L322.594 23.4886H322.935L331.003 9.90909H335.037L324.526 27.0114V39H321.003V27.0114L310.491 9.90909Z" fill="url(#paint0_linear_0_1)"/>
<path fill-rule="evenodd" clip-rule="evenodd" d="M29.0668 28.1362L38.4973 18.3161C39.8556 16.9018 40.5347 16.1947 40.8923 15.2955C41.25 14.3963 41.25 13.3963 41.25 11.3963V10.4408C41.25 7.36527 41.25 5.82753 40.3324 4.8721C39.4149 3.91667 37.9382 3.91667 34.9847 3.91667H34.0671C32.1463 3.91667 31.1859 3.91667 30.3225 4.28912C29.4589 4.6616 28.7799 5.36871 27.4217 6.78296L17.991 16.6031C16.404 18.2556 15.42 19.2803 15.039 20.2699C14.9186 20.5827 14.8584 20.8919 14.8584 21.2164C14.8584 22.5674 15.9026 23.6549 17.991 25.8296L18.2717 26.1218L21.5597 22.6366C22.0286 22.1395 22.7946 22.1335 23.2704 22.6233C23.7463 23.113 23.7521 23.913 23.2832 24.41L19.9851 27.9061L20.2061 28.1362C22.2947 30.3109 23.3389 31.3982 24.6364 31.3982C24.9233 31.3982 25.1976 31.3451 25.4734 31.2389C26.4465 30.8647 27.4397 29.8303 29.0668 28.1362ZM33.4973 16.6038C32.2738 17.8777 30.2903 17.8777 29.067 16.6038C27.8436 15.3299 27.8436 13.2645 29.067 11.9906C30.2903 10.7166 32.2738 10.7166 33.4973 11.9906C34.7207 13.2645 34.7207 15.3299 33.4973 16.6038Z" fill="#5DB1FF"/>
<path fill-rule="evenodd" clip-rule="evenodd" d="M5.20142 24.4427C5.75687 25.0236 5.75632 25.9648 5.20018 26.5448L4.90836 26.8493C4.65906 27.1094 4.65906 27.5302 4.90836 27.7903C5.15859 28.0514 5.56502 28.0514 5.81526 27.7903L9.0255 24.4414C9.58163 23.8613 10.4827 23.8619 11.0382 24.4427C11.5937 25.0236 11.5931 25.9648 11.037 26.5448L7.82674 29.8936C6.46519 31.3139 4.25842 31.3139 2.89687 29.8936C1.53438 28.4724 1.53437 26.1672 2.89687 24.7459L3.18872 24.4414C3.74484 23.8613 4.64595 23.8619 5.20142 24.4427ZM13.6822 32.6963C14.2318 33.2832 14.2218 34.2242 13.6598 34.7982L10.4158 38.1119C9.85384 38.6859 8.95277 38.6753 8.40321 38.0884C7.85362 37.5015 7.86366 36.5605 8.42559 35.9865L11.6697 32.6728C12.2316 32.0988 13.1327 32.1094 13.6822 32.6963ZM21.5271 35.4811C22.0826 36.0619 22.0821 37.0031 21.5259 37.5834L18.3156 40.9321C18.0664 41.1922 18.0664 41.613 18.3156 41.8731C18.5659 42.1341 18.9724 42.1341 19.2225 41.8731L19.5144 41.5686C20.0706 40.9885 20.9717 40.9891 21.5271 41.5699C22.0826 42.1508 22.0821 43.0919 21.5259 43.672L21.234 43.9765C19.8726 45.3967 17.6657 45.3967 16.3042 43.9765C14.9417 42.5552 14.9417 40.25 16.3042 38.8287L19.5144 35.4799C20.0706 34.8996 20.9717 34.9002 21.5271 35.4811Z" fill="#A8A8A8"/>
<g opacity="0.5">
<path d="M20.3364 10.5931L16.2344 14.8645C15.4805 15.6496 14.7888 16.3697 14.2426 17.0208C13.8919 17.4388 13.5413 17.8964 13.2444 18.402L13.2044 18.3604C13.1286 18.2814 13.0906 18.2419 13.0525 18.2033C12.3395 17.4808 11.5009 16.9063 10.5814 16.5106C10.5323 16.4895 10.4824 16.4689 10.3827 16.4276L9.77194 16.1748C8.94456 15.8324 8.72406 14.72 9.35363 14.0644C11.1605 12.183 13.3298 9.92415 14.3768 9.47044C15.3001 9.07033 16.2975 8.93721 17.2595 9.08569C18.1409 9.22173 18.9746 9.69459 20.3364 10.5931Z" fill="#5DB1FF"/>
<path d="M27.3405 33.0829C27.6711 33.4333 27.8904 33.6808 28.089 33.9452C28.3507 34.2941 28.5849 34.6648 28.7891 35.0534C29.0188 35.4909 29.1971 35.9581 29.5539 36.8928C29.8442 37.6537 30.8091 37.8548 31.3693 37.2714L31.5049 37.1302C33.3116 35.2486 35.481 32.9897 35.9167 31.8995C36.3009 30.9381 36.4288 29.8994 36.2861 28.8978C36.1556 27.9801 35.7015 27.1119 34.8388 25.6943L30.7232 29.9799C29.9522 30.7828 29.2451 31.5192 28.6057 32.0959C28.2225 32.4416 27.8032 32.787 27.3405 33.0829Z" fill="#5DB1FF"/>
</g>
<g opacity="0.5">
<path d="M14.4116 28.5198C14.9674 27.9393 14.9674 26.9982 14.4116 26.4177C13.8559 25.8373 12.9547 25.8373 12.3989 26.4177L8.38193 30.6133C7.82614 31.1937 7.82614 32.1349 8.38193 32.7153C8.93773 33.2958 9.83884 33.2958 10.3946 32.7153L14.4116 28.5198Z" fill="#A8A8A8"/>
<path d="M19.6789 34.0143C20.2346 33.4338 20.2346 32.4927 19.6789 31.9122C19.1229 31.3318 18.2219 31.3318 17.6661 31.9122L13.6766 36.079C13.1208 36.6596 13.1208 37.6006 13.6766 38.1812C14.2324 38.7617 15.1335 38.7617 15.6893 38.1812L19.6789 34.0143Z" fill="#A8A8A8"/>
</g>
<path d="M49.9116 0.53409V48.375H47.0707V0.53409H49.9116Z" fill="white"/>
<defs>
<linearGradient id="paint0_linear_0_1" x1="38" y1="23.5" x2="350" y2="23.5" gradientUnits="userSpaceOnUse">
<stop stop-color="#874D3A"/>
<stop offset="0.509615" stop-color="#C97D5B"/>
<stop offset="1" stop-color="#5DB1FF"/>
</linearGradient>
</defs>
</svg>
